<svg xmlns="http://www.w3.org/2000/svg" viewBox="0 0 1100 236" width="1100" height="236" role="img" aria-labelledby="t d" fill="none">
<title id="t">How the work is shaped: prompt, orchestrate, serve, ship, observe</title>
<desc id="d">Five pixel-sprite stages on a dashed rail, with a pulse travelling through them.</desc>
<defs><pattern id="dtc" width="8" height="8" patternUnits="userSpaceOnUse"><rect x="0" y="0" width="2" height="2" fill="#F4EFE6" opacity="0.05"/><rect x="4" y="4" width="2" height="2" fill="#F4EFE6" opacity="0.05"/></pattern></defs>
<rect x="1.25" y="1.25" width="1097.5" height="233.5" rx="14" fill="#1A1622" stroke="#37304A" stroke-width="2.5"/>
<rect x="1.25" y="1.25" width="1097.5" height="233.5" rx="14" fill="url(#dtc)"/>
<line x1="118.0" y1="100" x2="971.5" y2="100" stroke="#A697D8" stroke-width="6" opacity="0.8" stroke-dasharray="6 6"/>
<rect class="halo" x="68.0" y="50" width="100" height="100" rx="18" fill="#6ED8B8" opacity="0" style="transform-box:view-box;transform-origin:118.0px 100.0px"/>
<rect x="76.0" y="58" width="84" height="84" rx="10" fill="#2A2438" stroke="#A697D8" stroke-width="2.5"/>
<rect x="100.5" y="82.5" width="10" height="5" fill="#A697D8"/><rect x="105.5" y="87.5" width="10" height="5" fill="#A697D8"/><rect x="110.5" y="92.5" width="10" height="5" fill="#A697D8"/><rect x="125.5" y="92.5" width="10" height="5" fill="#6ED8B8" class="caret"/><rect x="115.5" y="97.5" width="10" height="5" fill="#A697D8"/><rect x="125.5" y="97.5" width="10" height="5" fill="#6ED8B8" class="caret"/><rect x="110.5" y="102.5" width="10" height="5" fill="#A697D8"/><rect x="125.5" y="102.5" width="10" height="5" fill="#6ED8B8" class="caret"/><rect x="105.5" y="107.5" width="10" height="5" fill="#A697D8"/><rect x="125.5" y="107.5" width="10" height="5" fill="#6ED8B8" class="caret"/><rect x="100.5" y="112.5" width="10" height="5" fill="#A697D8"/>
<path d="M2.48 0V-21.64H10.7Q13.86 -21.64 15.53 -19.84Q17.2 -18.04 17.2 -14.94Q17.2 -11.84 15.53 -10.04Q13.86 -8.25 10.7 -8.25H6.54V0ZM6.54 -11.56H9.86Q11.5 -11.56 12.21 -12.23Q12.93 -12.9 12.93 -14.35V-15.53Q12.93 -16.99 12.21 -17.65Q11.5 -18.32 9.86 -18.32H6.54ZM27.62 0H23.56V-21.64H31.78Q34.94 -21.64 36.61 -19.84Q38.28 -18.04 38.28 -14.94Q38.28 -12.55 37.18 -10.93Q36.08 -9.3 34.04 -8.87L38.66 0H34.19L30.07 -8.4H27.62ZM30.94 -11.56Q32.58 -11.56 33.29 -12.23Q34.01 -12.9 34.01 -14.35V-15.53Q34.01 -16.99 33.29 -17.65Q32.58 -18.32 30.94 -18.32H27.62V-11.56ZM51.46 0.37Q49.35 0.37 47.8 -0.39Q46.25 -1.15 45.24 -2.57Q44.24 -4 43.76 -6.08Q43.28 -8.15 43.28 -10.82Q43.28 -13.45 43.76 -15.55Q44.24 -17.64 45.24 -19.06Q46.25 -20.49 47.8 -21.25Q49.35 -22.01 51.46 -22.01Q55.68 -22.01 57.66 -19.07Q59.64 -16.12 59.64 -10.82Q59.64 -5.52 57.66 -2.57Q55.68 0.37 51.46 0.37ZM51.46 -2.94Q52.55 -2.94 53.29 -3.36Q54.03 -3.78 54.48 -4.56Q54.93 -5.33 55.13 -6.46Q55.34 -7.59 55.34 -8.99V-12.68Q55.34 -15.47 54.48 -17.08Q53.63 -18.69 51.46 -18.69Q49.29 -18.69 48.44 -17.08Q47.59 -15.47 47.59 -12.68V-8.96Q47.59 -6.17 48.44 -4.56Q49.29 -2.94 51.46 -2.94ZM76.82 -10.01 77 -16.27H76.73L72.54 -5.15L68.36 -16.27H68.08L68.26 -10.01V0H64.73V-21.64H69.56L72.57 -13.67H72.79L75.83 -21.64H80.35V0H76.82ZM86.8 0V-21.64H95.02Q98.18 -21.64 99.85 -19.84Q101.53 -18.04 101.53 -14.94Q101.53 -11.84 99.85 -10.04Q98.18 -8.25 95.02 -8.25H90.86V0ZM90.86 -11.56H94.18Q95.82 -11.56 96.53 -12.23Q97.25 -12.9 97.25 -14.35V-15.53Q97.25 -16.99 96.53 -17.65Q95.82 -18.32 94.18 -18.32H90.86ZM116.72 -18.29V0H112.69V-18.29H106.18V-21.64H123.23V-18.29Z" fill="#B9B1C6" transform="translate(56.00 190)"/>
<rect class="halo" x="281.4" y="50" width="100" height="100" rx="18" fill="#6ED8B8" opacity="0" style="transform-box:view-box;transform-origin:331.4px 100.0px"/>
<rect x="289.4" y="58" width="84" height="84" rx="10" fill="#2A2438" stroke="#A697D8" stroke-width="2.5"/>
<rect x="343.9" y="82.5" width="10" height="5" fill="#A697D8"/><rect x="338.9" y="87.5" width="5" height="5" fill="#A697D8"/><rect x="333.9" y="92.5" width="5" height="5" fill="#A697D8"/><rect x="308.9" y="97.5" width="35" height="5" fill="#A697D8"/><rect x="333.9" y="102.5" width="5" height="5" fill="#A697D8"/><rect x="338.9" y="107.5" width="5" height="5" fill="#A697D8"/><rect x="343.9" y="112.5" width="10" height="5" fill="#A697D8"/>
<path d="M9.3 0.37Q7.19 0.37 5.64 -0.39Q4.09 -1.15 3.08 -2.57Q2.08 -4 1.6 -6.08Q1.12 -8.15 1.12 -10.82Q1.12 -13.45 1.6 -15.55Q2.08 -17.64 3.08 -19.06Q4.09 -20.49 5.64 -21.25Q7.19 -22.01 9.3 -22.01Q13.52 -22.01 15.5 -19.07Q17.48 -16.12 17.48 -10.82Q17.48 -5.52 15.5 -2.57Q13.52 0.37 9.3 0.37ZM9.3 -2.94Q10.38 -2.94 11.13 -3.36Q11.87 -3.78 12.32 -4.56Q12.77 -5.33 12.97 -6.46Q13.18 -7.59 13.18 -8.99V-12.68Q13.18 -15.47 12.32 -17.08Q11.47 -18.69 9.3 -18.69Q7.13 -18.69 6.28 -17.08Q5.42 -15.47 5.42 -12.68V-8.96Q5.42 -6.17 6.28 -4.56Q7.13 -2.94 9.3 -2.94ZM27.62 0H23.56V-21.64H31.78Q34.94 -21.64 36.61 -19.84Q38.28 -18.04 38.28 -14.94Q38.28 -12.55 37.18 -10.93Q36.08 -9.3 34.04 -8.87L38.66 0H34.19L30.07 -8.4H27.62ZM30.94 -11.56Q32.58 -11.56 33.29 -12.23Q34.01 -12.9 34.01 -14.35V-15.53Q34.01 -16.99 33.29 -17.65Q32.58 -18.32 30.94 -18.32H27.62V-11.56ZM52.02 0.37Q47.77 0.37 45.74 -2.54Q43.71 -5.46 43.71 -10.82Q43.71 -16.15 45.74 -19.08Q47.77 -22.01 52.02 -22.01Q53.63 -22.01 54.85 -21.58Q56.08 -21.14 56.98 -20.38Q57.88 -19.62 58.47 -18.55Q59.06 -17.48 59.4 -16.21L55.68 -15.16Q55.46 -15.9 55.18 -16.55Q54.9 -17.2 54.48 -17.69Q54.06 -18.17 53.44 -18.43Q52.82 -18.69 51.96 -18.69Q49.85 -18.69 48.93 -17.08Q48.02 -15.47 48.02 -12.68V-8.96Q48.02 -6.17 48.93 -4.56Q49.85 -2.94 51.96 -2.94Q52.82 -2.94 53.44 -3.21Q54.06 -3.47 54.48 -3.95Q54.9 -4.43 55.18 -5.08Q55.46 -5.74 55.68 -6.48L59.4 -5.42Q59.06 -4.15 58.47 -3.08Q57.88 -2.02 56.98 -1.26Q56.08 -0.5 54.85 -0.06Q53.63 0.37 52.02 0.37ZM75.7 -9.3H69.38V0H65.32V-21.64H69.38V-12.65H75.7V-21.64H79.76V0H75.7ZM86.89 0V-21.64H100.56V-18.29H90.95V-12.65H100.22V-9.3H90.95V-3.35H100.56V0ZM114.45 0.37Q111.66 0.37 109.69 -0.59Q107.73 -1.55 106.48 -3.13L108.93 -5.67Q110.14 -4.28 111.55 -3.61Q112.96 -2.94 114.58 -2.94Q116.44 -2.94 117.43 -3.78Q118.42 -4.62 118.42 -6.2Q118.42 -7.5 117.68 -8.17Q116.93 -8.83 115.17 -9.11L112.87 -9.49Q109.86 -10.01 108.59 -11.67Q107.32 -13.33 107.32 -15.59Q107.32 -18.69 109.34 -20.35Q111.35 -22.01 114.92 -22.01Q117.46 -22.01 119.3 -21.2Q121.15 -20.4 122.26 -19L119.88 -16.46Q119.01 -17.48 117.8 -18.09Q116.59 -18.69 114.95 -18.69Q111.41 -18.69 111.41 -15.78Q111.41 -14.54 112.16 -13.89Q112.9 -13.24 114.7 -12.93L116.96 -12.52Q119.78 -12 121.15 -10.45Q122.51 -8.9 122.51 -6.48Q122.51 -4.96 121.98 -3.7Q121.46 -2.45 120.44 -1.53Q119.41 -0.62 117.91 -0.12Q116.41 0.37 114.45 0.37ZM137.8 -18.29V0H133.77V-18.29H127.26V-21.64H144.31V-18.29ZM154.1 0H150.04V-21.64H158.25Q161.42 -21.64 163.09 -19.84Q164.76 -18.04 164.76 -14.94Q164.76 -12.55 163.66 -10.93Q162.56 -9.3 160.52 -8.87L165.14 0H160.67L156.55 -8.4H154.1ZM157.42 -11.56Q159.06 -11.56 159.77 -12.23Q160.49 -12.9 160.49 -14.35V-15.53Q160.49 -16.99 159.77 -17.65Q159.06 -18.32 157.42 -18.32H154.1V-11.56ZM182.56 0 181.04 -5.49H174.62L173.14 0H169.04L175.12 -21.64H180.76L186.87 0ZM177.97 -17.64H177.72L175.34 -8.8H180.36ZM201.04 -18.29V0H197.01V-18.29H190.5V-21.64H207.55V-18.29ZM213.37 0V-21.64H227.04V-18.29H217.43V-12.65H226.7V-9.3H217.43V-3.35H227.04V0Z" fill="#B9B1C6" transform="translate(216.70 190)"/>
<rect class="halo" x="494.70000000000005" y="50" width="100" height="100" rx="18" fill="#6ED8B8" opacity="0" style="transform-box:view-box;transform-origin:544.7px 100.0px"/>
<rect x="502.70000000000005" y="58" width="84" height="84" rx="10" fill="#2A2438" stroke="#A697D8" stroke-width="2.5"/>
<rect x="527.2" y="82.5" width="5" height="5" fill="#6ED8B8"/><rect x="532.2" y="82.5" width="25" height="5" fill="#A697D8"/><rect x="527.2" y="87.5" width="35" height="5" fill="#A697D8"/><rect x="527.2" y="97.5" width="5" height="5" fill="#6ED8B8"/><rect x="532.2" y="97.5" width="25" height="5" fill="#A697D8"/><rect x="527.2" y="102.5" width="35" height="5" fill="#A697D8"/><rect x="527.2" y="112.5" width="5" height="5" fill="#6ED8B8"/><rect x="532.2" y="112.5" width="25" height="5" fill="#A697D8"/><rect x="527.2" y="117.5" width="35" height="5" fill="#A697D8"/>
<path d="M9.05 0.37Q6.26 0.37 4.29 -0.59Q2.33 -1.55 1.08 -3.13L3.53 -5.67Q4.74 -4.28 6.15 -3.61Q7.56 -2.94 9.18 -2.94Q11.04 -2.94 12.03 -3.78Q13.02 -4.62 13.02 -6.2Q13.02 -7.5 12.28 -8.17Q11.53 -8.83 9.77 -9.11L7.47 -9.49Q4.46 -10.01 3.19 -11.67Q1.92 -13.33 1.92 -15.59Q1.92 -18.69 3.94 -20.35Q5.95 -22.01 9.52 -22.01Q12.06 -22.01 13.9 -21.2Q15.75 -20.4 16.86 -19L14.48 -16.46Q13.61 -17.48 12.4 -18.09Q11.19 -18.69 9.55 -18.69Q6.01 -18.69 6.01 -15.78Q6.01 -14.54 6.76 -13.89Q7.5 -13.24 9.3 -12.93L11.56 -12.52Q14.38 -12 15.75 -10.45Q17.11 -8.9 17.11 -6.48Q17.11 -4.96 16.59 -3.7Q16.06 -2.45 15.04 -1.53Q14.01 -0.62 12.51 -0.12Q11.01 0.37 9.05 0.37ZM23.65 0V-21.64H37.32V-18.29H27.71V-12.65H36.98V-9.3H27.71V-3.35H37.32V0ZM48.7 0H44.64V-21.64H52.86Q56.02 -21.64 57.69 -19.84Q59.37 -18.04 59.37 -14.94Q59.37 -12.55 58.26 -10.93Q57.16 -9.3 55.12 -8.87L59.74 0H55.27L51.15 -8.4H48.7ZM52.02 -11.56Q53.66 -11.56 54.37 -12.23Q55.09 -12.9 55.09 -14.35V-15.53Q55.09 -16.99 54.37 -17.65Q53.66 -18.32 52.02 -18.32H48.7V-11.56ZM69.69 0 63.77 -21.64H68.23L70.93 -10.7L72.51 -3.88H72.73L74.34 -10.7L77.07 -21.64H81.31L75.39 0ZM86.89 0V-21.64H100.56V-18.29H90.95V-12.65H100.22V-9.3H90.95V-3.35H100.56V0Z" fill="#B9B1C6" transform="translate(493.24 190)"/>
<rect class="halo" x="708.1" y="50" width="100" height="100" rx="18" fill="#6ED8B8" opacity="0" style="transform-box:view-box;transform-origin:758.1px 100.0px"/>
<rect x="716.1" y="58" width="84" height="84" rx="10" fill="#2A2438" stroke="#A697D8" stroke-width="2.5"/>
<rect x="755.6" y="77.5" width="5" height="5" fill="#A697D8"/><rect x="750.6" y="82.5" width="15" height="5" fill="#A697D8"/><rect x="745.6" y="87.5" width="25" height="5" fill="#A697D8"/><rect x="740.6" y="92.5" width="5" height="5" fill="#A697D8"/><rect x="755.6" y="92.5" width="5" height="5" fill="#A697D8"/><rect x="770.6" y="92.5" width="5" height="5" fill="#A697D8"/><rect x="755.6" y="97.5" width="5" height="5" fill="#A697D8"/><rect x="755.6" y="102.5" width="5" height="5" fill="#A697D8"/><rect x="755.6" y="107.5" width="5" height="5" fill="#A697D8"/><rect x="740.6" y="117.5" width="35" height="5" fill="#A697D8"/>
<path d="M9.05 0.37Q6.26 0.37 4.29 -0.59Q2.33 -1.55 1.08 -3.13L3.53 -5.67Q4.74 -4.28 6.15 -3.61Q7.56 -2.94 9.18 -2.94Q11.04 -2.94 12.03 -3.78Q13.02 -4.62 13.02 -6.2Q13.02 -7.5 12.28 -8.17Q11.53 -8.83 9.77 -9.11L7.47 -9.49Q4.46 -10.01 3.19 -11.67Q1.92 -13.33 1.92 -15.59Q1.92 -18.69 3.94 -20.35Q5.95 -22.01 9.52 -22.01Q12.06 -22.01 13.9 -21.2Q15.75 -20.4 16.86 -19L14.48 -16.46Q13.61 -17.48 12.4 -18.09Q11.19 -18.69 9.55 -18.69Q6.01 -18.69 6.01 -15.78Q6.01 -14.54 6.76 -13.89Q7.5 -13.24 9.3 -12.93L11.56 -12.52Q14.38 -12 15.75 -10.45Q17.11 -8.9 17.11 -6.48Q17.11 -4.96 16.59 -3.7Q16.06 -2.45 15.04 -1.53Q14.01 -0.62 12.51 -0.12Q11.01 0.37 9.05 0.37ZM33.54 -9.3H27.22V0H23.16V-21.64H27.22V-12.65H33.54V-21.64H37.6V0H33.54ZM44.58 0V-3.04H49.45V-18.6H44.58V-21.64H58.34V-18.6H53.48V-3.04H58.34V0ZM65.72 0V-21.64H73.94Q77.1 -21.64 78.77 -19.84Q80.45 -18.04 80.45 -14.94Q80.45 -11.84 78.77 -10.04Q77.1 -8.25 73.94 -8.25H69.78V0ZM69.78 -11.56H73.1Q74.74 -11.56 75.45 -12.23Q76.17 -12.9 76.17 -14.35V-15.53Q76.17 -16.99 75.45 -17.65Q74.74 -18.32 73.1 -18.32H69.78Z" fill="#B9B1C6" transform="translate(717.18 190)"/>
<rect class="halo" x="921.5" y="50" width="100" height="100" rx="18" fill="#6ED8B8" opacity="0" style="transform-box:view-box;transform-origin:971.5px 100.0px"/>
<rect x="929.5" y="58" width="84" height="84" rx="10" fill="#2A2438" stroke="#A697D8" stroke-width="2.5"/>
<rect class="obs" x="949.0" y="100" width="10" height="20" fill="#6ED8B8" style="transform-box:view-box;transform-origin:954.0px 120.0px"/><rect class="obs" x="964.0" y="85" width="10" height="35" fill="#6ED8B8" style="transform-box:view-box;transform-origin:969.0px 120.0px"/><rect class="obs" x="979.0" y="95" width="10" height="25" fill="#6ED8B8" style="transform-box:view-box;transform-origin:984.0px 120.0px"/>
<path d="M9.3 0.37Q7.19 0.37 5.64 -0.39Q4.09 -1.15 3.08 -2.57Q2.08 -4 1.6 -6.08Q1.12 -8.15 1.12 -10.82Q1.12 -13.45 1.6 -15.55Q2.08 -17.64 3.08 -19.06Q4.09 -20.49 5.64 -21.25Q7.19 -22.01 9.3 -22.01Q13.52 -22.01 15.5 -19.07Q17.48 -16.12 17.48 -10.82Q17.48 -5.52 15.5 -2.57Q13.52 0.37 9.3 0.37ZM9.3 -2.94Q10.38 -2.94 11.13 -3.36Q11.87 -3.78 12.32 -4.56Q12.77 -5.33 12.97 -6.46Q13.18 -7.59 13.18 -8.99V-12.68Q13.18 -15.47 12.32 -17.08Q11.47 -18.69 9.3 -18.69Q7.13 -18.69 6.28 -17.08Q5.42 -15.47 5.42 -12.68V-8.96Q5.42 -6.17 6.28 -4.56Q7.13 -2.94 9.3 -2.94ZM23.56 -21.64H31.09Q34.16 -21.64 35.82 -20.1Q37.48 -18.57 37.48 -15.93Q37.48 -14.07 36.56 -12.96Q35.65 -11.84 33.98 -11.35V-11.19Q35.93 -10.73 37.06 -9.5Q38.19 -8.28 38.19 -6.04Q38.19 -4.68 37.74 -3.58Q37.29 -2.48 36.47 -1.67Q35.65 -0.87 34.49 -0.43Q33.33 0 31.87 0H23.56ZM30.63 -2.94Q32.33 -2.94 33.19 -3.58Q34.04 -4.22 34.04 -5.77V-6.79Q34.04 -8.31 33.19 -8.94Q32.33 -9.58 30.63 -9.58H27.53V-2.94ZM30.1 -12.4Q31.74 -12.4 32.53 -12.99Q33.33 -13.58 33.33 -15.04V-16.06Q33.33 -17.52 32.53 -18.1Q31.74 -18.69 30.1 -18.69H27.53V-12.4ZM51.21 0.37Q48.42 0.37 46.45 -0.59Q44.49 -1.55 43.25 -3.13L45.69 -5.67Q46.9 -4.28 48.31 -3.61Q49.72 -2.94 51.34 -2.94Q53.2 -2.94 54.19 -3.78Q55.18 -4.62 55.18 -6.2Q55.18 -7.5 54.44 -8.17Q53.69 -8.83 51.93 -9.11L49.63 -9.49Q46.62 -10.01 45.35 -11.67Q44.08 -13.33 44.08 -15.59Q44.08 -18.69 46.1 -20.35Q48.11 -22.01 51.68 -22.01Q54.22 -22.01 56.06 -21.2Q57.91 -20.4 59.02 -19L56.64 -16.46Q55.77 -17.48 54.56 -18.09Q53.35 -18.69 51.71 -18.69Q48.17 -18.69 48.17 -15.78Q48.17 -14.54 48.92 -13.89Q49.66 -13.24 51.46 -12.93L53.72 -12.52Q56.54 -12 57.91 -10.45Q59.27 -8.9 59.27 -6.48Q59.27 -4.96 58.75 -3.7Q58.22 -2.45 57.2 -1.53Q56.17 -0.62 54.67 -0.12Q53.17 0.37 51.21 0.37ZM65.81 0V-21.64H79.48V-18.29H69.87V-12.65H79.14V-9.3H69.87V-3.35H79.48V0ZM90.86 0H86.8V-21.64H95.02Q98.18 -21.64 99.85 -19.84Q101.53 -18.04 101.53 -14.94Q101.53 -12.55 100.42 -10.93Q99.32 -9.3 97.28 -8.87L101.9 0H97.43L93.31 -8.4H90.86ZM94.18 -11.56Q95.82 -11.56 96.53 -12.23Q97.25 -12.9 97.25 -14.35V-15.53Q97.25 -16.99 96.53 -17.65Q95.82 -18.32 94.18 -18.32H90.86V-11.56ZM111.85 0 105.93 -21.64H110.39L113.09 -10.7L114.67 -3.88H114.89L116.5 -10.7L119.23 -21.64H123.47L117.55 0ZM129.05 0V-21.64H142.72V-18.29H133.11V-12.65H142.38V-9.3H133.11V-3.35H142.72V0Z" fill="#B9B1C6" transform="translate(898.96 190)"/>
</svg>
